<svg width="19" height="24" viewBox="0 0 19 24" xmlns="http://www.w3.org/2000/svg">
    <g clip-path="url(#clip0_40_3962)">
        <path class="svg-path" d="M9.5 24C4.53125 24 0.5 19.9688 0.5 15C0.5 10.725 6.60313 2.70469 8.30938 0.548437C8.59063 0.196875 9.00781 0 9.45781 0H9.54219C9.99219 0 10.4094 0.196875 10.6906 0.548437C12.3969 2.70469 18.5 10.725 18.5 15C18.5 19.9688 14.4688 24 9.5 24ZM5 15.75C5 15.3375 4.6625 15 4.25 15C3.8375 15 3.5 15.3375 3.5 15.75C3.5 18.6516 5.84844 21 8.75 21C9.1625 21 9.5 20.6625 9.5 20.25C9.5 19.8375 9.1625 19.5 8.75 19.5C6.67812 19.5 5 17.8219 5 15.75Z"/>
    </g>
    <defs>
        <clipPath id="clip0_40_3962">
            <rect width="18" height="24" fill="white" transform="translate(0.5)"/>
        </clipPath>
    </defs>
</svg>