<svg width="68" height="63" viewBox="0 0 68 63" fill="none" xmlns="http://www.w3.org/2000/svg">
<path d="M2.5 61V12.5H12.5V51.5H55.5V61H2.5Z" fill="#00FFFF"/>
<mask id="mask0_260_171" style="mask-type:alpha" maskUnits="userSpaceOnUse" x="12" y="12" width="44" height="39">
<path fill-rule="evenodd" clip-rule="evenodd" d="M12.0109 12.1073H45.7984V32.1295H55.8094V50.9002H45.7983V42.1405H45.7983V50.9002H12.0107V32.1295H12.0109V12.1073Z" fill="black"/>
</mask>
<g mask="url(#mask0_260_171)">
<path d="M43.2855 45.9014C43.2855 48.9289 40.8313 51.3831 37.8039 51.3831C34.7765 51.3831 32.3223 48.9289 32.3223 45.9014C32.3223 42.874 34.7765 40.4198 37.8039 40.4198C40.8313 40.4198 43.2855 42.874 43.2855 45.9014Z" fill="#00FFFF"/>
<path d="M58.4477 45.9014C58.4477 48.9289 55.9934 51.3831 52.966 51.3831C49.9386 51.3831 47.4844 48.9289 47.4844 45.9014C47.4844 42.874 49.9386 40.4198 52.966 40.4198C55.9934 40.4198 58.4477 42.874 58.4477 45.9014Z" fill="#00FFFF"/>
<path d="M28.1244 45.9014C28.1244 48.9289 25.6702 51.3831 22.6428 51.3831C19.6153 51.3831 17.1611 48.9289 17.1611 45.9014C17.1611 42.874 19.6153 40.4198 22.6428 40.4198C25.6702 40.4198 28.1244 42.874 28.1244 45.9014Z" fill="#00FFFF"/>
<path d="M50.0668 32.9069C50.0668 35.9344 47.6126 38.3886 44.5852 38.3886C41.5577 38.3886 39.1035 35.9344 39.1035 32.9069C39.1035 29.8795 41.5577 27.4253 44.5852 27.4253C47.6126 27.4253 50.0668 29.8795 50.0668 32.9069Z" fill="#00FFFF"/>
<path d="M35.0199 32.9069C35.0199 35.9344 32.5657 38.3886 29.5383 38.3886C26.5109 38.3886 24.0566 35.9344 24.0566 32.9069C24.0566 29.8795 26.5109 27.4253 29.5383 27.4253C32.5657 27.4253 35.0199 29.8795 35.0199 32.9069Z" fill="#00FFFF"/>
<path d="M19.973 32.9069C19.973 35.9344 17.5188 38.3886 14.4914 38.3886C11.464 38.3886 9.00977 35.9344 9.00977 32.9069C9.00977 29.8795 11.464 27.4253 14.4914 27.4253C17.5188 27.4253 19.973 29.8795 19.973 32.9069Z" fill="#00FFFF"/>
<path d="M43.2855 19.3026C43.2855 22.33 40.8313 24.7842 37.8039 24.7842C34.7765 24.7842 32.3223 22.33 32.3223 19.3026C32.3223 16.2751 34.7765 13.8209 37.8039 13.8209C40.8313 13.8209 43.2855 16.2751 43.2855 19.3026Z" fill="#00FFFF"/>
<path d="M28.1244 19.3026C28.1244 22.33 25.6702 24.7842 22.6428 24.7842C19.6153 24.7842 17.1611 22.33 17.1611 19.3026C17.1611 16.2751 19.6153 13.8209 22.6428 13.8209C25.6702 13.8209 28.1244 16.2751 28.1244 19.3026Z" fill="#00FFFF"/>
</g>
<path fill-rule="evenodd" clip-rule="evenodd" d="M9.81836 0H58.0019V19.637H67.8206V53.0928H9.81852V33.4557L9.81836 0ZM13.8185 29.4557V49.0928H63.8206V23.637H54.0019V4H13.8184L13.8185 29.4557Z" fill="black"/>
<path fill-rule="evenodd" clip-rule="evenodd" d="M0 9.8186H48.1836V29.4557H58.002V62.9114H0.000143647V43.2743L0 9.8186ZM4.00014 39.2743V58.9114H54.002V33.4557H44.1836V13.8186H4L4.00014 39.2743Z" fill="black"/>
</svg>
