<svg width="68" height="63" viewBox="0 0 68 63" fill="none" xmlns="http://www.w3.org/2000/svg">
<path d="M2.5 61V12.5H12.5V51.5H55.5V61H2.5Z" fill="#CC00FF"/>
<mask id="mask0_260_107" style="mask-type:alpha" maskUnits="userSpaceOnUse" x="12" y="12" width="44" height="39">
<path fill-rule="evenodd" clip-rule="evenodd" d="M12.0109 12.1073H45.7984V32.1295H55.8094V50.9002H45.7983V42.1405H45.7983V50.9002H12.0107V32.1295H12.0109V12.1073Z" fill="black"/>
</mask>
<g mask="url(#mask0_260_107)">
<path fill-rule="evenodd" clip-rule="evenodd" d="M44.4854 57.0061L48.424 53.0674L44.4854 49.1287L48.424 45.19L44.4854 41.2513L48.424 37.3127L44.4854 33.374L48.424 29.4353L44.4854 25.4966L48.424 21.5579L44.4854 17.6192L48.424 13.6805L44.4854 9.74186L48.424 5.80317L44.4854 1.86448L48.424 -2.0742L44.4853 -6.01289L48.424 -9.95158L44.4853 -13.8903L48.424 -17.8289L44.4853 -21.7676L48.424 -25.7063L45.1925 -28.9379L46.6067 -30.3521L51.2525 -25.7063L47.3138 -21.7676L51.2525 -17.829L47.3138 -13.8903L51.2525 -9.95158L47.3138 -6.01289L51.2525 -2.0742L47.3138 1.86448L51.2525 5.80317L47.3138 9.74185L51.2525 13.6805L47.3138 17.6192L51.2525 21.5579L47.3138 25.4966L51.2525 29.4353L47.3138 33.374L51.2525 37.3127L47.3138 41.2513L51.2525 45.19L47.3138 49.1287L51.2525 53.0674L47.3138 57.0061L51.2525 60.9448L46.6067 65.5906L45.1925 64.1764L48.424 60.9448L44.4854 57.0061Z" fill="#CC00FF"/>
<path fill-rule="evenodd" clip-rule="evenodd" d="M35.1543 57.0061L39.093 53.0674L35.1543 49.1287L39.093 45.19L35.1543 41.2513L39.093 37.3127L35.1543 33.374L39.093 29.4353L35.1543 25.4966L39.093 21.5579L35.1543 17.6192L39.093 13.6805L35.1543 9.74186L39.093 5.80317L35.1543 1.86448L39.093 -2.0742L35.1543 -6.01289L39.093 -9.95158L35.1543 -13.8903L39.093 -17.8289L35.1543 -21.7676L39.093 -25.7063L35.8614 -28.9379L37.2756 -30.3521L41.9214 -25.7063L37.9827 -21.7676L41.9214 -17.829L37.9827 -13.8903L41.9214 -9.95158L37.9827 -6.01289L41.9214 -2.0742L37.9827 1.86448L41.9214 5.80317L37.9827 9.74185L41.9214 13.6805L37.9827 17.6192L41.9214 21.5579L37.9827 25.4966L41.9214 29.4353L37.9827 33.374L41.9214 37.3127L37.9827 41.2513L41.9214 45.19L37.9827 49.1287L41.9214 53.0674L37.9827 57.0061L41.9214 60.9448L37.2756 65.5906L35.8614 64.1764L39.093 60.9448L35.1543 57.0061Z" fill="#CC00FF"/>
<path fill-rule="evenodd" clip-rule="evenodd" d="M25.8213 57.0061L29.76 53.0674L25.8213 49.1287L29.76 45.19L25.8213 41.2513L29.76 37.3127L25.8213 33.374L29.76 29.4353L25.8213 25.4966L29.76 21.5579L25.8213 17.6192L29.76 13.6805L25.8213 9.74186L29.76 5.80317L25.8213 1.86448L29.76 -2.0742L25.8213 -6.01289L29.76 -9.95158L25.8213 -13.8903L29.76 -17.8289L25.8213 -21.7676L29.76 -25.7063L26.5284 -28.9379L27.9426 -30.3521L32.5884 -25.7063L28.6497 -21.7676L32.5884 -17.829L28.6497 -13.8903L32.5884 -9.95158L28.6497 -6.01289L32.5884 -2.0742L28.6497 1.86448L32.5884 5.80317L28.6497 9.74185L32.5884 13.6805L28.6497 17.6192L32.5884 21.5579L28.6497 25.4966L32.5884 29.4353L28.6497 33.374L32.5884 37.3127L28.6497 41.2513L32.5884 45.19L28.6497 49.1287L32.5884 53.0674L28.6497 57.0061L32.5884 60.9448L27.9426 65.5906L26.5284 64.1764L29.76 60.9448L25.8213 57.0061Z" fill="#CC00FF"/>
<path fill-rule="evenodd" clip-rule="evenodd" d="M16.4893 57.0061L20.4279 53.0674L16.4893 49.1287L20.4279 45.19L16.4893 41.2513L20.4279 37.3127L16.4893 33.374L20.4279 29.4353L16.4893 25.4966L20.4279 21.5579L16.4893 17.6192L20.4279 13.6805L16.4893 9.74186L20.4279 5.80317L16.4893 1.86448L20.4279 -2.0742L16.4893 -6.01289L20.4279 -9.95158L16.4893 -13.8903L20.4279 -17.8289L16.4893 -21.7676L20.4279 -25.7063L17.1964 -28.9379L18.6106 -30.3521L23.2564 -25.7063L19.3177 -21.7676L23.2564 -17.829L19.3177 -13.8903L23.2564 -9.95158L19.3177 -6.01289L23.2564 -2.0742L19.3177 1.86448L23.2564 5.80317L19.3177 9.74185L23.2564 13.6805L19.3177 17.6192L23.2564 21.5579L19.3177 25.4966L23.2564 29.4353L19.3177 33.374L23.2564 37.3127L19.3177 41.2513L23.2564 45.19L19.3177 49.1287L23.2564 53.0674L19.3177 57.0061L23.2564 60.9448L18.6106 65.5906L17.1964 64.1764L20.4279 60.9448L16.4893 57.0061Z" fill="#CC00FF"/>
</g>
<path fill-rule="evenodd" clip-rule="evenodd" d="M9.81836 0H58.0019V19.637H67.8206V53.0928H9.81852V33.4557L9.81836 0ZM13.8185 29.4557V49.0928H63.8206V23.637H54.0019V4H13.8184L13.8185 29.4557Z" fill="black"/>
<path fill-rule="evenodd" clip-rule="evenodd" d="M0 9.8186H48.1836V29.4557H58.002V62.9114H0.000143647V43.2743L0 9.8186ZM4.00014 39.2743V58.9114H54.002V33.4557H44.1836V13.8186H4L4.00014 39.2743Z" fill="black"/>
</svg>
